<?xml version="1.0" encoding="UTF-8"?>
<svg width="2015px" height="511px" viewBox="0 0 2015 511" version="1.1" xmlns="http://www.w3.org/2000/svg" xmlns:xlink="http://www.w3.org/1999/xlink">
    <title>logo</title>
    <g id="logo" stroke="none" stroke-width="1" fill="none" fill-rule="evenodd">
        <g id="Coffee-Shops" transform="translate(17.2169, 19.7422)" fill="#FFFFFF" fill-rule="nonzero">
            <path d="M177.533133,227.257803 C139.533133,301.757803 86.5331335,335.257803 54.5331335,309.257803 C30.0331335,289.257803 25.0331335,215.257803 69.0331335,142.257803 C114.033133,67.7578035 190.033133,27.2578035 204.033133,42.2578035 C215.533133,54.2578035 197.533133,82.7578035 189.533133,109.257803 C182.033133,134.257803 190.033133,149.757803 201.533133,157.257803 C207.533133,161.257803 211.033133,158.257803 212.533133,154.257803 C218.033133,139.757803 225.033133,120.257803 232.533133,104.757803 C240.033133,89.2578035 241.533133,75.2578035 237.033133,60.7578035 C233.033133,48.2578035 221.533133,33.7578035 210.533133,24.2578035 C194.533133,10.2578035 170.033133,12.2578035 143.033133,22.7578035 C87.0331335,44.2578035 -1.96686654,134.757803 0.033133459,240.757803 C1.03313346,281.757803 20.5331335,312.757803 43.0331335,324.757803 C70.0331335,339.257803 112.033133,339.757803 147.533133,314.257803 C168.533133,299.257803 200.533133,261.757803 188.033133,228.257803 C185.533133,221.757803 180.033133,221.757803 177.533133,227.257803 Z" id="Path"></path>
            <path d="M385.533133,222.757803 C387.533133,220.257803 387.533133,217.757803 384.033133,217.757803 C380.033133,217.757803 377.033133,218.757803 374.033133,218.757803 C374.533133,214.757803 374.533133,211.257803 375.033133,207.257803 C378.033133,171.257803 363.033133,167.757803 351.533133,152.257803 C341.533133,138.757803 333.033133,134.257803 317.533133,135.257803 C287.533133,137.257803 257.033133,166.257803 238.033133,200.257803 C215.533133,240.257803 208.033133,283.757803 230.033133,312.757803 C250.033133,338.757803 275.033133,340.757803 293.033133,334.757803 C330.033133,322.257803 361.533133,271.757803 372.033133,229.257803 C377.033133,228.757803 382.033133,226.757803 385.533133,222.757803 Z M342.533133,209.257803 C334.533133,201.757803 329.033133,187.257803 331.533133,173.757803 C334.033133,159.257803 344.033133,156.257803 346.533133,172.257803 C348.033133,181.257803 346.533133,193.757803 342.533133,209.257803 Z M339.033133,222.757803 C335.033133,234.757803 329.033133,248.757803 321.533133,262.757803 C297.033133,308.757803 266.533133,326.257803 252.533133,314.757803 C239.533133,303.757803 247.033133,257.757803 268.033133,219.757803 C278.533133,200.757803 293.033133,184.257803 306.533133,172.757803 C307.033133,191.257803 319.033133,208.757803 329.533133,216.757803 C332.533133,219.257803 335.533133,221.257803 339.033133,222.757803 Z" id="Shape"></path>
            <path d="M433.533133,238.257803 C460.533133,185.757803 495.033133,129.257803 515.533133,95.2578035 C537.033133,58.7578035 538.533133,37.2578035 532.533133,20.2578035 C530.533133,14.2578035 524.033133,13.7578035 520.033133,19.7578035 C464.533133,102.757803 349.533133,294.257803 335.533133,405.757803 C330.033133,448.257803 345.033133,467.757803 357.533133,478.257803 C372.533133,491.257803 385.033133,489.257803 402.033133,468.257803 C426.033133,438.257803 448.033133,382.757803 456.033133,332.257803 C486.033133,321.757803 511.033133,292.257803 516.033133,280.257803 C520.533133,268.757803 523.533133,257.757803 521.033133,250.257803 C518.533133,243.257803 513.533133,243.757803 510.533133,249.757803 C497.533133,275.757803 477.533133,300.757803 458.533133,313.257803 C459.033133,307.257803 459.533133,301.757803 459.533133,296.257803 C460.033133,263.257803 452.533133,244.257803 433.533133,238.257803 Z M431.033133,321.257803 C421.533133,319.257803 417.033133,308.757803 417.533133,292.757803 C418.033133,281.257803 422.533133,254.757803 427.533133,252.757803 C431.033133,251.257803 436.033133,266.757803 435.533133,285.257803 C435.033133,296.757803 433.533133,309.257803 431.033133,321.257803 Z M397.533133,315.757803 C403.533133,327.757803 413.533133,334.257803 428.033133,335.757803 C411.533133,404.257803 374.033133,473.257803 363.033133,458.757803 C351.533133,444.257803 369.533133,382.257803 397.533133,315.757803 Z" id="Shape"></path>
            <path d="M555.033133,238.257803 C582.033133,185.757803 616.533133,129.257803 637.033133,95.2578035 C658.533133,58.7578035 660.033133,37.2578035 654.033133,20.2578035 C652.033133,14.2578035 645.533133,13.7578035 641.533133,19.7578035 C586.033133,102.757803 471.033133,294.257803 457.033133,405.757803 C451.533133,448.257803 466.533133,467.757803 479.033133,478.257803 C494.033133,491.257803 506.533133,489.257803 523.533133,468.257803 C547.533133,438.257803 569.533133,382.757803 577.533133,332.257803 C607.533133,321.757803 632.533133,292.257803 637.533133,280.257803 C642.033133,268.757803 645.033133,257.757803 642.533133,250.257803 C640.033133,243.257803 635.033133,243.757803 632.033133,249.757803 C619.033133,275.757803 599.033133,300.757803 580.033133,313.257803 C580.533133,307.257803 581.033133,301.757803 581.033133,296.257803 C581.533133,263.257803 574.033133,244.257803 555.033133,238.257803 Z M552.533133,321.257803 C543.033133,319.257803 538.533133,308.757803 539.033133,292.757803 C539.533133,281.257803 544.033133,254.757803 549.033133,252.757803 C552.533133,251.257803 557.533133,266.757803 557.033133,285.257803 C556.533133,296.757803 555.033133,309.257803 552.533133,321.257803 Z M519.033133,315.757803 C525.033133,327.757803 535.033133,334.257803 549.533133,335.757803 C533.033133,404.257803 495.533133,473.257803 484.533133,458.757803 C473.033133,444.257803 491.033133,382.257803 519.033133,315.757803 Z" id="Shape"></path>
            <path d="M662.533133,244.757803 C697.533133,273.257803 731.033133,260.257803 755.533133,230.257803 C776.533133,204.757803 780.533133,174.257803 771.533133,162.257803 C763.533133,151.257803 754.533133,143.757803 742.033133,136.257803 C717.033133,121.757803 666.033133,147.757803 633.533133,212.257803 C601.033133,276.757803 623.033133,339.257803 686.533133,338.257803 C725.033133,337.757803 763.533133,314.757803 784.533133,284.257803 C793.533133,271.257803 795.033133,257.257803 793.033133,253.257803 C791.033133,248.757803 787.033133,248.757803 784.533133,252.757803 C763.033133,285.757803 726.533133,325.757803 685.033133,323.757803 C658.533133,322.257803 646.533133,290.757803 662.533133,244.757803 Z M667.033133,233.757803 C668.033133,231.257803 669.533133,228.257803 671.033133,225.257803 C694.533133,177.757803 736.033133,147.757803 746.533133,156.257803 C753.533133,161.757803 742.533133,187.757803 726.533133,208.757803 C712.033133,227.757803 691.533133,249.257803 667.033133,233.757803 Z" id="Shape"></path>
            <path d="M822.533133,244.757803 C857.533133,273.257803 891.033133,260.257803 915.533133,230.257803 C936.533133,204.757803 940.533133,174.257803 931.533133,162.257803 C923.533133,151.257803 914.533133,143.757803 902.033133,136.257803 C877.033133,121.757803 826.033133,147.757803 793.533133,212.257803 C761.033133,276.757803 783.033133,339.257803 846.533133,338.257803 C885.033133,337.757803 923.533133,314.757803 944.533133,284.257803 C953.533133,271.257803 955.033133,257.257803 953.033133,253.257803 C951.033133,248.757803 947.033133,248.757803 944.533133,252.757803 C923.033133,285.757803 886.533133,325.757803 845.033133,323.757803 C818.533133,322.257803 806.533133,290.757803 822.533133,244.757803 Z M827.033133,233.757803 C828.033133,231.257803 829.533133,228.257803 831.033133,225.257803 C854.533133,177.757803 896.033133,147.757803 906.533133,156.257803 C913.533133,161.757803 902.533133,187.757803 886.533133,208.757803 C872.033133,227.757803 851.533133,249.257803 827.033133,233.757803 Z" id="Shape"></path>
            <path d="M1030.03313,263.257803 C1025.53313,264.757803 1023.53313,268.257803 1029.03313,274.757803 C1099.53313,359.757803 1186.53313,350.257803 1216.53313,315.757803 C1238.53313,290.257803 1241.03313,267.257803 1222.03313,253.757803 C1194.03313,233.757803 1130.03313,207.257803 1131.53313,174.757803 C1134.03313,112.257803 1257.03313,35.7578035 1274.03313,53.2578035 C1286.03313,65.7578035 1248.53313,107.257803 1238.03313,131.257803 C1227.53313,154.757803 1233.53313,170.257803 1243.03313,179.757803 C1248.53313,185.257803 1251.53313,182.757803 1254.03313,178.257803 C1261.03313,165.757803 1275.53313,140.257803 1288.53313,122.757803 C1296.03313,112.257803 1308.03313,92.7578035 1303.03313,72.7578035 C1299.53313,58.7578035 1290.53313,42.2578035 1278.03313,30.7578035 C1261.53313,15.7578035 1237.53313,19.7578035 1213.53313,29.7578035 C1169.03313,48.7578035 1091.53313,107.257803 1091.53313,175.757803 C1091.53313,227.257803 1170.53313,258.257803 1197.03313,280.757803 C1204.03313,286.757803 1206.53313,297.257803 1198.03313,306.757803 C1191.53313,312.257803 1181.03313,315.757803 1167.03313,315.757803 C1134.53313,315.757803 1100.53313,289.757803 1080.53313,273.757803 C1067.03313,262.757803 1046.53313,258.257803 1030.03313,263.257803 Z" id="Path"></path>
            <path d="M1468.03313,284.757803 C1475.53313,269.757803 1475.53313,259.257803 1473.03313,253.757803 C1471.03313,249.757803 1466.03313,249.757803 1464.03313,254.257803 C1448.53313,286.257803 1421.03313,322.257803 1400.53313,323.257803 C1382.03313,324.257803 1379.53313,300.757803 1392.03313,271.757803 C1403.53313,245.757803 1427.53313,209.257803 1438.53313,187.257803 C1451.53313,161.757803 1436.03313,136.757803 1419.03313,134.757803 C1405.53313,133.257803 1379.53313,149.757803 1359.03313,169.757803 C1380.53313,136.257803 1407.03313,95.7578035 1419.03313,75.7578035 C1438.03313,44.2578035 1439.53313,19.2578035 1433.03313,4.75780348 C1430.53313,-1.24219652 1425.53313,-1.74219652 1421.03313,4.25780348 C1380.53313,54.7578035 1276.53313,230.757803 1259.03313,280.757803 C1248.53313,310.757803 1253.03313,324.757803 1261.03313,333.757803 C1264.03313,337.257803 1267.53313,336.257803 1269.53313,331.757803 C1281.53313,301.257803 1300.03313,266.257803 1318.03313,236.757803 C1347.03313,189.257803 1401.53313,155.257803 1408.53313,159.257803 C1416.53313,163.757803 1373.03313,215.757803 1356.53313,264.257803 C1341.53313,307.757803 1352.03313,338.257803 1394.03313,338.257803 C1423.53313,338.257803 1454.03313,313.257803 1468.03313,284.757803 Z" id="Path"></path>
            <path d="M1834.53313,288.757803 C1843.03313,272.757803 1843.53313,260.757803 1842.03313,256.257803 C1840.53313,251.257803 1835.03313,249.257803 1832.03313,256.257803 C1816.03313,289.757803 1786.03313,325.257803 1738.03313,327.757803 C1756.53313,316.257803 1774.03313,292.757803 1789.53313,259.757803 C1808.53313,219.257803 1819.03313,175.257803 1796.03313,149.757803 C1775.03313,126.257803 1744.53313,141.757803 1723.03313,161.257803 C1723.53313,151.757803 1721.53313,144.757803 1719.03313,138.757803 C1716.53313,132.257803 1711.53313,131.257803 1707.03313,137.757803 C1680.53313,178.757803 1648.53313,214.757803 1616.53313,215.257803 C1617.03313,212.757803 1618.03313,209.757803 1618.03313,207.257803 C1620.53313,170.257803 1605.53313,167.757803 1594.03313,152.257803 C1584.03313,138.757803 1575.53313,134.257803 1560.53313,135.257803 C1530.53313,137.257803 1499.53313,166.257803 1480.53313,200.257803 C1458.53313,239.757803 1450.03313,283.757803 1472.53313,312.757803 C1493.03313,338.757803 1517.03313,340.257803 1535.53313,334.257803 C1573.03313,322.257803 1604.03313,270.257803 1614.53313,227.257803 C1632.03313,228.757803 1648.03313,224.257803 1661.53313,214.257803 C1625.53313,279.757803 1583.03313,364.257803 1573.03313,396.257803 C1563.53313,426.757803 1566.53313,441.257803 1574.03313,451.257803 C1576.53313,455.757803 1580.03313,454.257803 1582.03313,449.757803 C1606.53313,393.757803 1634.53313,337.757803 1660.53313,290.257803 C1661.53313,302.757803 1667.03313,313.757803 1676.53313,322.757803 C1694.03313,338.757803 1715.53313,343.757803 1746.53313,341.757803 C1782.03313,339.257803 1816.03313,322.757803 1834.53313,288.757803 Z M1585.53313,207.257803 C1576.03313,198.757803 1571.53313,184.257803 1573.53313,173.757803 C1576.03313,158.757803 1586.53313,156.257803 1588.53313,172.257803 C1589.53313,181.257803 1589.03313,192.757803 1585.53313,207.257803 Z M1758.53313,242.257803 C1735.53313,289.757803 1703.03313,326.257803 1686.53313,312.757803 C1673.03313,301.757803 1675.53313,272.757803 1687.03313,242.257803 C1693.53313,231.757803 1700.03313,221.757803 1705.53313,212.257803 C1729.03313,173.757803 1758.03313,150.257803 1770.53313,155.257803 C1783.03313,160.257803 1778.03313,201.757803 1758.53313,242.257803 Z M1582.03313,219.757803 C1578.03313,232.757803 1572.03313,247.257803 1563.53313,262.757803 C1539.03313,307.757803 1508.53313,326.257803 1494.53313,314.257803 C1482.03313,303.757803 1489.03313,257.257803 1510.53313,219.757803 C1522.03313,200.257803 1536.03313,183.757803 1549.03313,172.257803 C1549.53313,191.757803 1564.03313,210.257803 1582.03313,219.757803 Z" id="Shape"></path>
            <path d="M1844.53313,248.257803 C1844.03313,244.257803 1844.03313,240.257803 1843.53313,236.257803 C1843.03313,228.257803 1839.03313,226.257803 1833.03313,231.257803 C1816.03313,245.257803 1814.53313,278.257803 1826.53313,300.757803 C1843.53313,331.757803 1871.53313,339.257803 1900.53313,338.257803 C1936.03313,336.757803 1970.03313,317.757803 1989.03313,283.257803 C1997.53313,267.757803 1998.03313,254.757803 1996.03313,250.257803 C1994.03313,246.257803 1989.03313,244.757803 1986.53313,250.257803 C1974.03313,277.257803 1953.03313,307.257803 1919.53313,319.757803 C1937.53313,307.757803 1941.03313,286.757803 1942.03313,267.257803 C1943.53313,232.757803 1934.03313,193.757803 1937.53313,147.757803 C1939.53313,144.257803 1941.03313,141.257803 1943.03313,138.257803 C1949.53313,126.757803 1952.03313,121.257803 1947.03313,116.257803 C1942.53313,111.757803 1931.03313,113.757803 1920.03313,123.757803 C1909.53313,133.257803 1904.53313,142.757803 1902.03313,162.257803 C1887.53313,187.757803 1865.03313,220.257803 1844.53313,248.257803 Z M1901.03313,194.257803 C1903.03313,234.257803 1910.53313,312.757803 1887.53313,319.757803 C1871.03313,324.757803 1856.53313,304.257803 1849.03313,275.257803 C1868.03313,248.257803 1886.53313,220.757803 1901.03313,194.257803 Z" id="Shape"></path>
        </g>
    </g>
</svg>